<?xml version="1.0" encoding="UTF-8" standalone="no"?>
<!DOCTYPE svg PUBLIC "-//W3C//DTD SVG 1.1//EN"
 "http://www.w3.org/Graphics/SVG/1.1/DTD/svg11.dtd">
<!-- Generated by graphviz version 9.0.0 (20230911.1827)
 -->
<!-- Pages: 1 -->
<svg width="716pt" height="764pt"
 viewBox="0.00 0.00 716.00 764.00" xmlns="http://www.w3.org/2000/svg" xmlns:xlink="http://www.w3.org/1999/xlink">
<g id="graph0" class="graph" transform="scale(1 1) rotate(0) translate(4 760)">
<polygon fill="white" stroke="none" points="-4,4 -4,-760 712,-760 712,4 -4,4"/>
<!-- node0 -->
<g id="node1" class="node">
<title>node0</title>
<ellipse fill="none" stroke="black" cx="171" cy="-738" rx="27" ry="18"/>
<text text-anchor="middle" x="171" y="-732.58" font-family="Times New Roman,serif" font-size="14.00">S</text>
</g>
<!-- node1 -->
<g id="node2" class="node">
<title>node1</title>
<polygon fill="none" stroke="black" points="54,-666 40.5,-684 13.5,-684 0,-666 13.5,-648 40.5,-648 54,-666"/>
<text text-anchor="middle" x="27" y="-660.58" font-family="Times New Roman,serif" font-size="14.00">int</text>
</g>
<!-- node0&#45;&gt;node1 -->
<g id="edge1" class="edge">
<title>node0&#45;&gt;node1</title>
<path fill="none" stroke="black" d="M149.44,-726.52C124.78,-714.53 84.26,-694.84 56.64,-681.41"/>
<polygon fill="black" stroke="black" points="58.28,-678.31 47.76,-677.09 55.22,-684.61 58.28,-678.31"/>
</g>
<!-- node2 -->
<g id="node3" class="node">
<title>node2</title>
<ellipse fill="none" stroke="black" cx="99" cy="-666" rx="27" ry="18"/>
<text text-anchor="middle" x="99" y="-660.58" font-family="Times New Roman,serif" font-size="14.00">P</text>
</g>
<!-- node0&#45;&gt;node2 -->
<g id="edge2" class="edge">
<title>node0&#45;&gt;node2</title>
<path fill="none" stroke="black" d="M156.08,-722.5C146.23,-712.92 133.14,-700.19 121.97,-689.34"/>
<polygon fill="black" stroke="black" points="124.59,-687 114.98,-682.54 119.71,-692.02 124.59,-687"/>
</g>
<!-- node11 -->
<g id="node12" class="node">
<title>node11</title>
<ellipse fill="none" stroke="black" cx="171" cy="-666" rx="27" ry="18"/>
<text text-anchor="middle" x="171" y="-660.58" font-family="Times New Roman,serif" font-size="14.00">N</text>
</g>
<!-- node0&#45;&gt;node11 -->
<g id="edge11" class="edge">
<title>node0&#45;&gt;node11</title>
<path fill="none" stroke="black" d="M171,-719.7C171,-712.41 171,-703.73 171,-695.54"/>
<polygon fill="black" stroke="black" points="174.5,-695.62 171,-685.62 167.5,-695.62 174.5,-695.62"/>
</g>
<!-- node37 -->
<g id="node38" class="node">
<title>node37</title>
<polygon fill="none" stroke="black" points="270,-666 256.5,-684 229.5,-684 216,-666 229.5,-648 256.5,-648 270,-666"/>
<text text-anchor="middle" x="243" y="-660.58" font-family="Times New Roman,serif" font-size="14.00">;</text>
</g>
<!-- node0&#45;&gt;node37 -->
<g id="edge37" class="edge">
<title>node0&#45;&gt;node37</title>
<path fill="none" stroke="black" d="M185.92,-722.5C195.63,-713.05 208.51,-700.53 219.58,-689.77"/>
<polygon fill="black" stroke="black" points="221.79,-692.5 226.52,-683.02 216.91,-687.48 221.79,-692.5"/>
</g>
<!-- node38 -->
<g id="node39" class="node">
<title>node38</title>
<ellipse fill="none" stroke="black" cx="315" cy="-666" rx="27" ry="18"/>
<text text-anchor="middle" x="315" y="-660.58" font-family="Times New Roman,serif" font-size="14.00">S</text>
</g>
<!-- node0&#45;&gt;node38 -->
<g id="edge38" class="edge">
<title>node0&#45;&gt;node38</title>
<path fill="none" stroke="black" d="M192.56,-726.52C216.66,-714.8 255.92,-695.72 283.47,-682.32"/>
<polygon fill="black" stroke="black" points="284.94,-685.5 292.4,-677.98 281.88,-679.21 284.94,-685.5"/>
</g>
<!-- node3 -->
<g id="node4" class="node">
<title>node3</title>
<polygon fill="none" stroke="black" points="54,-594 40.5,-612 13.5,-612 0,-594 13.5,-576 40.5,-576 54,-594"/>
<text text-anchor="middle" x="27" y="-588.58" font-family="Times New Roman,serif" font-size="14.00">*</text>
</g>
<!-- node2&#45;&gt;node3 -->
<g id="edge3" class="edge">
<title>node2&#45;&gt;node3</title>
<path fill="none" stroke="black" d="M84.08,-650.5C74.37,-641.05 61.49,-628.53 50.42,-617.77"/>
<polygon fill="black" stroke="black" points="53.09,-615.48 43.48,-611.02 48.21,-620.5 53.09,-615.48"/>
</g>
<!-- node4 -->
<g id="node5" class="node">
<title>node4</title>
<ellipse fill="none" stroke="black" cx="99" cy="-594" rx="27" ry="18"/>
<text text-anchor="middle" x="99" y="-588.58" font-family="Times New Roman,serif" font-size="14.00">P</text>
</g>
<!-- node2&#45;&gt;node4 -->
<g id="edge4" class="edge">
<title>node2&#45;&gt;node4</title>
<path fill="none" stroke="black" d="M99,-647.7C99,-640.41 99,-631.73 99,-623.54"/>
<polygon fill="black" stroke="black" points="102.5,-623.62 99,-613.62 95.5,-623.62 102.5,-623.62"/>
</g>
<!-- node5 -->
<g id="node6" class="node">
<title>node5</title>
<polygon fill="none" stroke="black" points="81,-522 67.5,-540 40.5,-540 27,-522 40.5,-504 67.5,-504 81,-522"/>
<text text-anchor="middle" x="54" y="-516.58" font-family="Times New Roman,serif" font-size="14.00">*</text>
</g>
<!-- node4&#45;&gt;node5 -->
<g id="edge5" class="edge">
<title>node4&#45;&gt;node5</title>
<path fill="none" stroke="black" d="M88.79,-577.12C83.61,-569.06 77.18,-559.05 71.26,-549.84"/>
<polygon fill="black" stroke="black" points="74.29,-548.08 65.93,-541.57 68.4,-551.87 74.29,-548.08"/>
</g>
<!-- node6 -->
<g id="node7" class="node">
<title>node6</title>
<ellipse fill="none" stroke="black" cx="126" cy="-522" rx="27" ry="18"/>
<text text-anchor="middle" x="126" y="-516.58" font-family="Times New Roman,serif" font-size="14.00">P</text>
</g>
<!-- node4&#45;&gt;node6 -->
<g id="edge6" class="edge">
<title>node4&#45;&gt;node6</title>
<path fill="none" stroke="black" d="M105.54,-576.05C108.52,-568.32 112.13,-558.96 115.48,-550.27"/>
<polygon fill="black" stroke="black" points="118.65,-551.79 118.98,-541.2 112.12,-549.27 118.65,-551.79"/>
</g>
<!-- node7 -->
<g id="node8" class="node">
<title>node7</title>
<polygon fill="none" stroke="black" points="90,-450 76.5,-468 49.5,-468 36,-450 49.5,-432 76.5,-432 90,-450"/>
<text text-anchor="middle" x="63" y="-444.57" font-family="Times New Roman,serif" font-size="14.00">*</text>
</g>
<!-- node6&#45;&gt;node7 -->
<g id="edge7" class="edge">
<title>node6&#45;&gt;node7</title>
<path fill="none" stroke="black" d="M112.64,-506.15C104.51,-497.12 93.94,-485.38 84.65,-475.05"/>
<polygon fill="black" stroke="black" points="87.52,-473.01 78.23,-467.92 82.32,-477.7 87.52,-473.01"/>
</g>
<!-- node8 -->
<g id="node9" class="node">
<title>node8</title>
<ellipse fill="none" stroke="black" cx="135" cy="-450" rx="27" ry="18"/>
<text text-anchor="middle" x="135" y="-444.57" font-family="Times New Roman,serif" font-size="14.00">P</text>
</g>
<!-- node6&#45;&gt;node8 -->
<g id="edge8" class="edge">
<title>node6&#45;&gt;node8</title>
<path fill="none" stroke="black" d="M128.22,-503.7C129.17,-496.32 130.3,-487.52 131.37,-479.25"/>
<polygon fill="black" stroke="black" points="134.8,-479.97 132.61,-469.61 127.86,-479.08 134.8,-479.97"/>
</g>
<!-- node9 -->
<g id="node10" class="node">
<title>node9</title>
<ellipse fill="none" stroke="black" cx="135" cy="-378" rx="27" ry="18"/>
<text text-anchor="middle" x="135" y="-372.57" font-family="Times New Roman,serif" font-size="14.00">L</text>
</g>
<!-- node8&#45;&gt;node9 -->
<g id="edge9" class="edge">
<title>node8&#45;&gt;node9</title>
<path fill="none" stroke="black" d="M135,-431.7C135,-424.41 135,-415.73 135,-407.54"/>
<polygon fill="black" stroke="black" points="138.5,-407.62 135,-397.62 131.5,-407.62 138.5,-407.62"/>
</g>
<!-- node10 -->
<g id="node11" class="node">
<title>node10</title>
<polygon fill="none" stroke="black" points="162,-306 148.5,-324 121.5,-324 108,-306 121.5,-288 148.5,-288 162,-306"/>
<text text-anchor="middle" x="135" y="-300.57" font-family="Times New Roman,serif" font-size="14.00">a</text>
</g>
<!-- node9&#45;&gt;node10 -->
<g id="edge10" class="edge">
<title>node9&#45;&gt;node10</title>
<path fill="none" stroke="black" d="M135,-359.7C135,-352.41 135,-343.73 135,-335.54"/>
<polygon fill="black" stroke="black" points="138.5,-335.62 135,-325.62 131.5,-335.62 138.5,-335.62"/>
</g>
<!-- node12 -->
<g id="node13" class="node">
<title>node12</title>
<polygon fill="none" stroke="black" points="198,-594 184.5,-612 157.5,-612 144,-594 157.5,-576 184.5,-576 198,-594"/>
<text text-anchor="middle" x="171" y="-588.58" font-family="Times New Roman,serif" font-size="14.00">,</text>
</g>
<!-- node11&#45;&gt;node12 -->
<g id="edge12" class="edge">
<title>node11&#45;&gt;node12</title>
<path fill="none" stroke="black" d="M171,-647.7C171,-640.41 171,-631.73 171,-623.54"/>
<polygon fill="black" stroke="black" points="174.5,-623.62 171,-613.62 167.5,-623.62 174.5,-623.62"/>
</g>
<!-- node13 -->
<g id="node14" class="node">
<title>node13</title>
<ellipse fill="none" stroke="black" cx="243" cy="-594" rx="27" ry="18"/>
<text text-anchor="middle" x="243" y="-588.58" font-family="Times New Roman,serif" font-size="14.00">P</text>
</g>
<!-- node11&#45;&gt;node13 -->
<g id="edge13" class="edge">
<title>node11&#45;&gt;node13</title>
<path fill="none" stroke="black" d="M185.92,-650.5C195.77,-640.92 208.86,-628.19 220.03,-617.34"/>
<polygon fill="black" stroke="black" points="222.29,-620.02 227.02,-610.54 217.41,-615 222.29,-620.02"/>
</g>
<!-- node17 -->
<g id="node18" class="node">
<title>node17</title>
<ellipse fill="none" stroke="black" cx="337" cy="-594" rx="27" ry="18"/>
<text text-anchor="middle" x="337" y="-588.58" font-family="Times New Roman,serif" font-size="14.00">N</text>
</g>
<!-- node11&#45;&gt;node17 -->
<g id="edge17" class="edge">
<title>node11&#45;&gt;node17</title>
<path fill="none" stroke="black" d="M192.23,-654.74C197.06,-652.47 202.19,-650.11 207,-648 239.6,-633.67 277.34,-618.43 303.73,-607.99"/>
<polygon fill="black" stroke="black" points="304.87,-611.3 312.89,-604.38 302.3,-604.79 304.87,-611.3"/>
</g>
<!-- node14 -->
<g id="node15" class="node">
<title>node14</title>
<ellipse fill="none" stroke="black" cx="216" cy="-522" rx="27" ry="18"/>
<text text-anchor="middle" x="216" y="-516.58" font-family="Times New Roman,serif" font-size="14.00">L</text>
</g>
<!-- node13&#45;&gt;node14 -->
<g id="edge14" class="edge">
<title>node13&#45;&gt;node14</title>
<path fill="none" stroke="black" d="M236.46,-576.05C233.48,-568.32 229.87,-558.96 226.52,-550.27"/>
<polygon fill="black" stroke="black" points="229.88,-549.27 223.02,-541.2 223.35,-551.79 229.88,-549.27"/>
</g>
<!-- node15 -->
<g id="node16" class="node">
<title>node15</title>
<polygon fill="none" stroke="black" points="238,-450 224.5,-468 197.5,-468 184,-450 197.5,-432 224.5,-432 238,-450"/>
<text text-anchor="middle" x="211" y="-444.57" font-family="Times New Roman,serif" font-size="14.00">&amp;</text>
</g>
<!-- node14&#45;&gt;node15 -->
<g id="edge15" class="edge">
<title>node14&#45;&gt;node15</title>
<path fill="none" stroke="black" d="M214.76,-503.7C214.24,-496.41 213.62,-487.73 213.04,-479.54"/>
<polygon fill="black" stroke="black" points="216.53,-479.34 212.33,-469.61 209.55,-479.84 216.53,-479.34"/>
</g>
<!-- node16 -->
<g id="node17" class="node">
<title>node16</title>
<polygon fill="none" stroke="black" points="310,-450 296.5,-468 269.5,-468 256,-450 269.5,-432 296.5,-432 310,-450"/>
<text text-anchor="middle" x="283" y="-444.57" font-family="Times New Roman,serif" font-size="14.00">b</text>
</g>
<!-- node14&#45;&gt;node16 -->
<g id="edge16" class="edge">
<title>node14&#45;&gt;node16</title>
<path fill="none" stroke="black" d="M229.88,-506.5C238.71,-497.27 250.35,-485.11 260.49,-474.52"/>
<polygon fill="black" stroke="black" points="262.77,-477.19 267.16,-467.55 257.72,-472.35 262.77,-477.19"/>
</g>
<!-- node18 -->
<g id="node19" class="node">
<title>node18</title>
<polygon fill="none" stroke="black" points="315,-522 301.5,-540 274.5,-540 261,-522 274.5,-504 301.5,-504 315,-522"/>
<text text-anchor="middle" x="288" y="-516.58" font-family="Times New Roman,serif" font-size="14.00">,</text>
</g>
<!-- node17&#45;&gt;node18 -->
<g id="edge18" class="edge">
<title>node17&#45;&gt;node18</title>
<path fill="none" stroke="black" d="M325.88,-577.12C320.18,-568.97 313.09,-558.84 306.58,-549.55"/>
<polygon fill="black" stroke="black" points="309.57,-547.72 300.97,-541.53 303.84,-551.73 309.57,-547.72"/>
</g>
<!-- node19 -->
<g id="node20" class="node">
<title>node19</title>
<ellipse fill="none" stroke="black" cx="360" cy="-522" rx="27" ry="18"/>
<text text-anchor="middle" x="360" y="-516.58" font-family="Times New Roman,serif" font-size="14.00">P</text>
</g>
<!-- node17&#45;&gt;node19 -->
<g id="edge19" class="edge">
<title>node17&#45;&gt;node19</title>
<path fill="none" stroke="black" d="M342.57,-576.05C345.08,-568.4 348.12,-559.16 350.95,-550.56"/>
<polygon fill="black" stroke="black" points="354.21,-551.82 354.01,-541.23 347.56,-549.63 354.21,-551.82"/>
</g>
<!-- node22 -->
<g id="node23" class="node">
<title>node22</title>
<ellipse fill="none" stroke="black" cx="468" cy="-522" rx="27" ry="18"/>
<text text-anchor="middle" x="468" y="-516.58" font-family="Times New Roman,serif" font-size="14.00">N</text>
</g>
<!-- node17&#45;&gt;node22 -->
<g id="edge22" class="edge">
<title>node17&#45;&gt;node22</title>
<path fill="none" stroke="black" d="M357.76,-581.91C379.22,-570.44 412.96,-552.41 437.47,-539.32"/>
<polygon fill="black" stroke="black" points="438.83,-542.55 446,-534.75 435.54,-536.38 438.83,-542.55"/>
</g>
<!-- node20 -->
<g id="node21" class="node">
<title>node20</title>
<ellipse fill="none" stroke="black" cx="357" cy="-450" rx="27" ry="18"/>
<text text-anchor="middle" x="357" y="-444.57" font-family="Times New Roman,serif" font-size="14.00">L</text>
</g>
<!-- node19&#45;&gt;node20 -->
<g id="edge20" class="edge">
<title>node19&#45;&gt;node20</title>
<path fill="none" stroke="black" d="M359.26,-503.7C358.95,-496.41 358.57,-487.73 358.22,-479.54"/>
<polygon fill="black" stroke="black" points="361.72,-479.46 357.8,-469.62 354.73,-479.76 361.72,-479.46"/>
</g>
<!-- node21 -->
<g id="node22" class="node">
<title>node21</title>
<polygon fill="none" stroke="black" points="384,-378 370.5,-396 343.5,-396 330,-378 343.5,-360 370.5,-360 384,-378"/>
<text text-anchor="middle" x="357" y="-372.57" font-family="Times New Roman,serif" font-size="14.00">c</text>
</g>
<!-- node20&#45;&gt;node21 -->
<g id="edge21" class="edge">
<title>node20&#45;&gt;node21</title>
<path fill="none" stroke="black" d="M357,-431.7C357,-424.41 357,-415.73 357,-407.54"/>
<polygon fill="black" stroke="black" points="360.5,-407.62 357,-397.62 353.5,-407.62 360.5,-407.62"/>
</g>
<!-- node23 -->
<g id="node24" class="node">
<title>node23</title>
<polygon fill="none" stroke="black" points="456,-450 442.5,-468 415.5,-468 402,-450 415.5,-432 442.5,-432 456,-450"/>
<text text-anchor="middle" x="429" y="-444.57" font-family="Times New Roman,serif" font-size="14.00">,</text>
</g>
<!-- node22&#45;&gt;node23 -->
<g id="edge23" class="edge">
<title>node22&#45;&gt;node23</title>
<path fill="none" stroke="black" d="M458.95,-504.76C454.51,-496.78 449.03,-486.95 443.98,-477.89"/>
<polygon fill="black" stroke="black" points="447.2,-476.48 439.28,-469.45 441.09,-479.89 447.2,-476.48"/>
</g>
<!-- node24 -->
<g id="node25" class="node">
<title>node24</title>
<ellipse fill="none" stroke="black" cx="501" cy="-450" rx="27" ry="18"/>
<text text-anchor="middle" x="501" y="-444.57" font-family="Times New Roman,serif" font-size="14.00">P</text>
</g>
<!-- node22&#45;&gt;node24 -->
<g id="edge24" class="edge">
<title>node22&#45;&gt;node24</title>
<path fill="none" stroke="black" d="M475.82,-504.41C479.56,-496.48 484.13,-486.78 488.35,-477.84"/>
<polygon fill="black" stroke="black" points="491.49,-479.38 492.59,-468.84 485.16,-476.39 491.49,-479.38"/>
</g>
<!-- node36 -->
<g id="node37" class="node">
<title>node36</title>
<ellipse fill="none" stroke="black" cx="573" cy="-450" rx="27" ry="18"/>
<text text-anchor="middle" x="573" y="-444.57" font-family="Times New Roman,serif" font-size="14.00">N</text>
</g>
<!-- node22&#45;&gt;node36 -->
<g id="edge36" class="edge">
<title>node22&#45;&gt;node36</title>
<path fill="none" stroke="black" d="M486.77,-508.49C502.97,-497.69 526.6,-481.93 545.03,-469.65"/>
<polygon fill="black" stroke="black" points="546.75,-472.71 553.13,-464.25 542.87,-466.88 546.75,-472.71"/>
</g>
<!-- node25 -->
<g id="node26" class="node">
<title>node25</title>
<polygon fill="none" stroke="black" points="492,-378 478.5,-396 451.5,-396 438,-378 451.5,-360 478.5,-360 492,-378"/>
<text text-anchor="middle" x="465" y="-372.57" font-family="Times New Roman,serif" font-size="14.00">*</text>
</g>
<!-- node24&#45;&gt;node25 -->
<g id="edge25" class="edge">
<title>node24&#45;&gt;node25</title>
<path fill="none" stroke="black" d="M492.65,-432.76C488.59,-424.87 483.6,-415.16 478.98,-406.18"/>
<polygon fill="black" stroke="black" points="482.18,-404.76 474.5,-397.47 475.96,-407.96 482.18,-404.76"/>
</g>
<!-- node26 -->
<g id="node27" class="node">
<title>node26</title>
<ellipse fill="none" stroke="black" cx="537" cy="-378" rx="27" ry="18"/>
<text text-anchor="middle" x="537" y="-372.57" font-family="Times New Roman,serif" font-size="14.00">P</text>
</g>
<!-- node24&#45;&gt;node26 -->
<g id="edge26" class="edge">
<title>node24&#45;&gt;node26</title>
<path fill="none" stroke="black" d="M509.35,-432.76C513.58,-424.55 518.81,-414.37 523.58,-405.09"/>
<polygon fill="black" stroke="black" points="526.54,-406.99 528,-396.49 520.32,-403.79 526.54,-406.99"/>
</g>
<!-- node27 -->
<g id="node28" class="node">
<title>node27</title>
<polygon fill="none" stroke="black" points="528,-306 514.5,-324 487.5,-324 474,-306 487.5,-288 514.5,-288 528,-306"/>
<text text-anchor="middle" x="501" y="-300.57" font-family="Times New Roman,serif" font-size="14.00">*</text>
</g>
<!-- node26&#45;&gt;node27 -->
<g id="edge27" class="edge">
<title>node26&#45;&gt;node27</title>
<path fill="none" stroke="black" d="M528.65,-360.76C524.59,-352.87 519.6,-343.16 514.98,-334.18"/>
<polygon fill="black" stroke="black" points="518.18,-332.76 510.5,-325.47 511.96,-335.96 518.18,-332.76"/>
</g>
<!-- node28 -->
<g id="node29" class="node">
<title>node28</title>
<ellipse fill="none" stroke="black" cx="573" cy="-306" rx="27" ry="18"/>
<text text-anchor="middle" x="573" y="-300.57" font-family="Times New Roman,serif" font-size="14.00">P</text>
</g>
<!-- node26&#45;&gt;node28 -->
<g id="edge28" class="edge">
<title>node26&#45;&gt;node28</title>
<path fill="none" stroke="black" d="M545.35,-360.76C549.58,-352.55 554.81,-342.37 559.58,-333.09"/>
<polygon fill="black" stroke="black" points="562.54,-334.99 564,-324.49 556.32,-331.79 562.54,-334.99"/>
</g>
<!-- node29 -->
<g id="node30" class="node">
<title>node29</title>
<polygon fill="none" stroke="black" points="564,-234 550.5,-252 523.5,-252 510,-234 523.5,-216 550.5,-216 564,-234"/>
<text text-anchor="middle" x="537" y="-228.57" font-family="Times New Roman,serif" font-size="14.00">*</text>
</g>
<!-- node28&#45;&gt;node29 -->
<g id="edge29" class="edge">
<title>node28&#45;&gt;node29</title>
<path fill="none" stroke="black" d="M564.65,-288.76C560.59,-280.87 555.6,-271.16 550.98,-262.18"/>
<polygon fill="black" stroke="black" points="554.18,-260.76 546.5,-253.47 547.96,-263.96 554.18,-260.76"/>
</g>
<!-- node30 -->
<g id="node31" class="node">
<title>node30</title>
<ellipse fill="none" stroke="black" cx="609" cy="-234" rx="27" ry="18"/>
<text text-anchor="middle" x="609" y="-228.57" font-family="Times New Roman,serif" font-size="14.00">P</text>
</g>
<!-- node28&#45;&gt;node30 -->
<g id="edge30" class="edge">
<title>node28&#45;&gt;node30</title>
<path fill="none" stroke="black" d="M581.35,-288.76C585.58,-280.55 590.81,-270.37 595.58,-261.09"/>
<polygon fill="black" stroke="black" points="598.54,-262.99 600,-252.49 592.32,-259.79 598.54,-262.99"/>
</g>
<!-- node31 -->
<g id="node32" class="node">
<title>node31</title>
<polygon fill="none" stroke="black" points="600,-162 586.5,-180 559.5,-180 546,-162 559.5,-144 586.5,-144 600,-162"/>
<text text-anchor="middle" x="573" y="-156.57" font-family="Times New Roman,serif" font-size="14.00">*</text>
</g>
<!-- node30&#45;&gt;node31 -->
<g id="edge31" class="edge">
<title>node30&#45;&gt;node31</title>
<path fill="none" stroke="black" d="M600.65,-216.76C596.59,-208.87 591.6,-199.16 586.98,-190.18"/>
<polygon fill="black" stroke="black" points="590.18,-188.76 582.5,-181.47 583.96,-191.96 590.18,-188.76"/>
</g>
<!-- node32 -->
<g id="node33" class="node">
<title>node32</title>
<ellipse fill="none" stroke="black" cx="645" cy="-162" rx="27" ry="18"/>
<text text-anchor="middle" x="645" y="-156.57" font-family="Times New Roman,serif" font-size="14.00">P</text>
</g>
<!-- node30&#45;&gt;node32 -->
<g id="edge32" class="edge">
<title>node30&#45;&gt;node32</title>
<path fill="none" stroke="black" d="M617.35,-216.76C621.58,-208.55 626.81,-198.37 631.58,-189.09"/>
<polygon fill="black" stroke="black" points="634.54,-190.99 636,-180.49 628.32,-187.79 634.54,-190.99"/>
</g>
<!-- node33 -->
<g id="node34" class="node">
<title>node33</title>
<ellipse fill="none" stroke="black" cx="645" cy="-90" rx="27" ry="18"/>
<text text-anchor="middle" x="645" y="-84.58" font-family="Times New Roman,serif" font-size="14.00">L</text>
</g>
<!-- node32&#45;&gt;node33 -->
<g id="edge33" class="edge">
<title>node32&#45;&gt;node33</title>
<path fill="none" stroke="black" d="M645,-143.7C645,-136.41 645,-127.73 645,-119.54"/>
<polygon fill="black" stroke="black" points="648.5,-119.62 645,-109.62 641.5,-119.62 648.5,-119.62"/>
</g>
<!-- node34 -->
<g id="node35" class="node">
<title>node34</title>
<polygon fill="none" stroke="black" points="636,-18 622.5,-36 595.5,-36 582,-18 595.5,0 622.5,0 636,-18"/>
<text text-anchor="middle" x="609" y="-12.57" font-family="Times New Roman,serif" font-size="14.00">&amp;</text>
</g>
<!-- node33&#45;&gt;node34 -->
<g id="edge34" class="edge">
<title>node33&#45;&gt;node34</title>
<path fill="none" stroke="black" d="M636.65,-72.76C632.59,-64.87 627.6,-55.16 622.98,-46.18"/>
<polygon fill="black" stroke="black" points="626.18,-44.76 618.5,-37.47 619.96,-47.96 626.18,-44.76"/>
</g>
<!-- node35 -->
<g id="node36" class="node">
<title>node35</title>
<polygon fill="none" stroke="black" points="708,-18 694.5,-36 667.5,-36 654,-18 667.5,0 694.5,0 708,-18"/>
<text text-anchor="middle" x="681" y="-12.57" font-family="Times New Roman,serif" font-size="14.00">d</text>
</g>
<!-- node33&#45;&gt;node35 -->
<g id="edge35" class="edge">
<title>node33&#45;&gt;node35</title>
<path fill="none" stroke="black" d="M653.35,-72.76C657.41,-64.87 662.4,-55.16 667.02,-46.18"/>
<polygon fill="black" stroke="black" points="670.04,-47.96 671.5,-37.47 663.82,-44.76 670.04,-47.96"/>
</g>
</g>
</svg>
